<svg width="28" height="28" viewBox="0 0 28 28" fill="none" xmlns="http://www.w3.org/2000/svg">
<g clip-path="url(#clip0_37_1324)">
<rect width="28" height="28" rx="5.6" fill="#00BBFF"/>
<path d="M23.072 7.56006C24.0129 7.56006 24.4832 7.56055 24.8425 7.74365C25.1585 7.90468 25.4158 8.16107 25.5769 8.47705C25.76 8.83642 25.7595 9.30765 25.7595 10.2485V19.4878C25.7595 21.6831 25.76 22.7811 25.3328 23.6196C24.957 24.3571 24.3573 24.9567 23.6199 25.3325C22.7813 25.7598 21.6834 25.7603 19.488 25.7603H8.51245C6.31713 25.7603 5.21914 25.7597 4.38062 25.3325C3.64307 24.9567 3.04355 24.3572 2.66772 23.6196C2.24047 22.7811 2.23999 21.6832 2.23999 19.4878V10.2485C2.23999 9.30765 2.24047 8.83642 2.42358 8.47705C2.58459 8.16128 2.84122 7.90466 3.15698 7.74365C3.51635 7.56054 3.98758 7.56006 4.92847 7.56006H23.072ZM7.11792 10.9985V12.2974C7.11792 12.5064 7.17721 12.6635 7.29663 12.7681C7.4161 12.8726 7.5732 12.9469 7.76733 12.9917L8.79761 13.2046V18.3237C8.79766 19.1747 8.94726 19.9285 9.24585 20.5854C9.54452 21.2276 9.98474 21.7431 10.5671 22.1313C11.1495 22.5047 11.8589 22.6909 12.6951 22.6909C13.4417 22.6909 14.0993 22.5423 14.6667 22.2437C15.2341 21.945 15.7564 21.5639 16.2341 21.1011L16.4138 21.9966C16.5034 22.34 16.7423 22.5122 17.1306 22.5122H20.5349V21.2124C20.5348 21.0037 20.4754 20.8471 20.3562 20.7427C20.2517 20.6381 20.0946 20.5629 19.8855 20.5181L18.8552 20.3013V10.9985H14.3523V12.2974C14.3523 12.5064 14.405 12.6635 14.5095 12.7681C14.629 12.8726 14.7936 12.9469 15.0027 12.9917L16.033 13.2085V19.3315C15.6597 19.7048 15.2711 19.9955 14.8679 20.2046C14.4648 20.4136 14.0244 20.518 13.5466 20.5181C12.9046 20.5181 12.4266 20.3317 12.113 19.9585C11.7995 19.5703 11.6424 19.0254 11.6423 18.3237V10.9985H7.11792Z" fill="white"/>
<circle cx="4.20005" cy="5.04014" r="1.4" fill="white"/>
<circle cx="23.8" cy="5.04014" r="1.4" fill="white"/>
</g>
<defs>
<clipPath id="clip0_37_1324">
<rect width="28" height="28" fill="white"/>
</clipPath>
</defs>
</svg>
