<svg width="40" height="40" viewBox="0 0 40 40" fill="none" xmlns="http://www.w3.org/2000/svg">
<path d="M23.3333 3.33325H9.99996C9.1159 3.33325 8.26806 3.68444 7.64294 4.30956C7.01782 4.93468 6.66663 5.78253 6.66663 6.66659V33.3333C6.66663 34.2173 7.01782 35.0652 7.64294 35.6903C8.26806 36.3154 9.1159 36.6666 9.99996 36.6666H30C30.884 36.6666 31.7319 36.3154 32.357 35.6903C32.9821 35.0652 33.3333 34.2173 33.3333 33.3333V13.3333L23.3333 3.33325Z" fill="#E5E7EB"/>
<path d="M23.3334 9.99992V3.33325L33.3334 13.3333H26.6667C25.7827 13.3333 24.9348 12.9821 24.3097 12.3569C23.6846 11.7318 23.3334 10.884 23.3334 9.99992Z" fill="#99A1AF"/>
</svg>
