<svg width="60" height="60" viewBox="0 0 60 60" fill="none" xmlns="http://www.w3.org/2000/svg">
<path d="M54 30C54 43.2548 43.2548 54 30 54C16.7452 54 6 43.2548 6 30C6 16.7452 16.7452 6 30 6C43.2548 6 54 16.7452 54 30Z" fill="#F0B100"/>
<path d="M32.7992 42.3C32.7992 43.8464 31.5456 45.1 29.9992 45.1C28.4528 45.1 27.1992 43.8464 27.1992 42.3C27.1992 40.7536 28.4528 39.5 29.9992 39.5C31.5456 39.5 32.7992 40.7536 32.7992 42.3Z" fill="black"/>
<path d="M27.6016 17.9C27.6016 16.5745 28.6761 15.5 30.0016 15.5C31.327 15.5 32.4016 16.5745 32.4016 17.9V33.1C32.4016 34.4255 31.327 35.5 30.0016 35.5C28.6761 35.5 27.6016 34.4255 27.6016 33.1V17.9Z" fill="black"/>
</svg>
