<svg width="40" height="38" viewBox="0 0 40 38" fill="none" xmlns="http://www.w3.org/2000/svg">
<g filter="url(#filter0_d_388_95)">
<path d="M27 21C28.49 19.54 30 17.79 30 15.5C30 14.0413 29.4205 12.6424 28.3891 11.6109C27.3576 10.5795 25.9587 10 24.5 10C22.74 10 21.5 10.5 20 12C18.5 10.5 17.26 10 15.5 10C14.0413 10 12.6424 10.5795 11.6109 11.6109C10.5795 12.6424 10 14.0413 10 15.5C10 17.8 11.5 19.55 13 21L20 28L27 21Z" fill="#EF4444"/>
</g>
<defs>
<filter id="filter0_d_388_95" x="0" y="0" width="40" height="38" filterUnits="userSpaceOnUse" color-interpolation-filters="sRGB">
<feFlood flood-opacity="0" result="BackgroundImageFix"/>
<feColorMatrix in="SourceAlpha" type="matrix" values="0 0 0 0 0 0 0 0 0 0 0 0 0 0 0 0 0 0 127 0" result="hardAlpha"/>
<feOffset/>
<feGaussianBlur stdDeviation="5"/>
<feColorMatrix type="matrix" values="0 0 0 0 0.0117647 0 0 0 0 0.027451 0 0 0 0 0.0705882 0 0 0 0.4 0"/>
<feBlend mode="normal" in2="BackgroundImageFix" result="effect1_dropShadow_388_95"/>
<feBlend mode="normal" in="SourceGraphic" in2="effect1_dropShadow_388_95" result="shape"/>
</filter>
</defs>
</svg>
