<svg width="24" height="24" viewBox="0 0 24 24" fill="none" xmlns="http://www.w3.org/2000/svg">
<path d="M22 12C22 17.5228 17.5228 22 12 22C6.47715 22 2 17.5228 2 12C2 6.47715 6.47715 2 12 2C17.5228 2 22 6.47715 22 12Z" fill="#00C950"/>
<path fill-rule="evenodd" clip-rule="evenodd" d="M16.709 8.45063C17.0584 8.75015 17.0989 9.27624 16.7994 9.62567L11.7994 15.459C11.6483 15.6352 11.4306 15.7405 11.1986 15.7494C10.9667 15.7583 10.7415 15.6701 10.5774 15.5059L7.24408 12.1726C6.91864 11.8472 6.91864 11.3195 7.24408 10.9941C7.56951 10.6687 8.09715 10.6687 8.42259 10.9941L11.1196 13.6911L15.534 8.54102C15.8335 8.19158 16.3596 8.15112 16.709 8.45063Z" fill="white"/>
</svg>
