<svg width="24" height="24" viewBox="0 0 24 24" fill="none" xmlns="http://www.w3.org/2000/svg">
<path d="M8.15922 12.199L9.50122 13.8765C10.3554 14.9442 10.7825 15.4781 11.2984 15.6713C11.7508 15.8408 12.2492 15.8408 12.7016 15.6713C13.2175 15.4781 13.6446 14.9442 14.4988 13.8765L14.4988 13.8765L15.8408 12.199C17.1723 10.5347 17.838 9.70251 17.8387 9.00216C17.8394 8.39308 17.5625 7.81689 17.0865 7.43691C16.5391 7 15.4734 7 13.342 7H10.658C8.5266 7 7.4609 7 6.91355 7.43691C6.43752 7.81689 6.16059 8.39308 6.16125 9.00216C6.16201 9.70251 6.82774 10.5347 8.15922 12.199Z" fill="#99A1AF"/>
</svg>
